{
  "accessors": [
    {
      "name": "OP2_1_0_positions",
      "componentType": 5126,
      "count": 170,
      "min": [
        -2752.5,
        0,
        -52.5
      ],
      "max": [
        2762.5,
        2335,
        1797.5
      ],
      "type": "VEC3",
      "bufferView": 0,
      "byteOffset": 0
    },
    {
      "name": "OP2_1_0_texcoords",
      "componentType": 5126,
      "count": 170,
      "min": [
        0.004000000189989805,
        0.004999999888241291
      ],
      "max": [
        0.9959999918937683,
        0.9959999918937683
      ],
      "type": "VEC2",
      "bufferView": 1,
      "byteOffset": 0
    },
    {
      "name": "OP2_1_0_indices",
      "componentType": 5123,
      "count": 294,
      "min": [
        0
      ],
      "max": [
        169
      ],
      "type": "SCALAR",
      "bufferView": 2,
      "byteOffset": 0
    },
    {
      "name": "OP2_1_1_positions",
      "componentType": 5126,
      "count": 128,
      "min": [
        -1627.5,
        -17,
        -62.5
      ],
      "max": [
        -52.5,
        2125,
        102.5
      ],
      "type": "VEC3",
      "bufferView": 0,
      "byteOffset": 2040
    },
    {
      "name": "OP2_1_1_texcoords",
      "componentType": 5126,
      "count": 128,
      "min": [
        0.004000000189989805,
        0.004000000189989805
      ],
      "max": [
        0.5164999961853027,
        0.9959999918937683
      ],
      "type": "VEC2",
      "bufferView": 1,
      "byteOffset": 1360
    },
    {
      "name": "OP2_1_1_indices",
      "componentType": 5123,
      "count": 204,
      "min": [
        0
      ],
      "max": [
        127
      ],
      "type": "SCALAR",
      "bufferView": 2,
      "byteOffset": 588
    }
  ],
  "asset": {
    "generator": "obj2gltf",
    "version": "2.0"
  },
  "buffers": [
    {
      "name": "OP2",
      "byteLength": 232672,
      "uri": "data:application/octet-stream;base64,"
    }
  ],
  "bufferViews": [
    {
      "name": "bufferView_0",
      "buffer": 0,
      "byteLength": 3576,
      "byteOffset": 0,
      "byteStride": 12,
      "target": 34962
    },
    {
      "name": "bufferView_1",
      "buffer": 0,
      "byteLength": 2384,
      "byteOffset": 3576,
      "byteStride": 8,
      "target": 34962
    },
    {
      "name": "bufferView_2",
      "buffer": 0,
      "byteLength": 996,
      "byteOffset": 5960,
      "target": 34963
    },
    {
      "buffer": 0,
      "byteOffset": 6956,
      "byteLength": 133300
    },
    {
      "buffer": 0,
      "byteOffset": 140256,
      "byteLength": 92416
    }
  ],
  "images": [
    {
      "name": "M1VRayLightingMap",
      "mimeType": "image/jpeg",
      "bufferView": 3
    },
    {
      "name": "M2VRayLightingMap",
      "mimeType": "image/jpeg",
      "bufferView": 4
    }
  ],
  "materials": [
    {
      "name": "M1",
      "pbrMetallicRoughness": {
        "baseColorTexture": {
          "index": 0
        },
        "baseColorFactor": [
          1,
          1,
          1,
          1
        ],
        "metallicFactor": 0,
        "roughnessFactor": 0.99
      },
      "emissiveFactor": [
        0,
        0,
        0
      ],
      "alphaMode": "OPAQUE",
      "doubleSided": false
    },
    {
      "name": "M2",
      "pbrMetallicRoughness": {
        "baseColorTexture": {
          "index": 1
        },
        "baseColorFactor": [
          1,
          1,
          1,
          1
        ],
        "metallicFactor": 0,
        "roughnessFactor": 0.99
      },
      "emissiveFactor": [
        0,
        0,
        0
      ],
      "alphaMode": "OPAQUE",
      "doubleSided": false
    }
  ],
  "meshes": [
    {
      "name": "OP2_1",
      "primitives": [
        {
          "attributes": {
            "POSITION": 0,
            "TEXCOORD_0": 1
          },
          "indices": 2,
          "material": 0,
          "mode": 4
        },
        {
          "attributes": {
            "POSITION": 3,
            "TEXCOORD_0": 4
          },
          "indices": 5,
          "material": 1,
          "mode": 4
        }
      ]
    }
  ],
  "nodes": [
    {
      "name": "OP2",
      "mesh": 0
    }
  ],
  "samplers": [
    {
      "magFilter": 9729,
      "minFilter": 9986,
      "wrapS": 10497,
      "wrapT": 10497
    }
  ],
  "scene": 0,
  "scenes": [
    {
      "nodes": [
        0
      ]
    }
  ],
  "textures": [
    {
      "name": "M1VRayLightingMap",
      "sampler": 0,
      "source": 0
    },
    {
      "name": "M2VRayLightingMap",
      "sampler": 0,
      "source": 1
    }
  ]
}
