{
  "accessors": [
    {
      "name": "OP3_1_0_positions",
      "componentType": 5126,
      "count": 332,
      "min": [
        -2752.499755859375,
        0,
        -52.5
      ],
      "max": [
        6969.84765625,
        2335,
        2622.5
      ],
      "type": "VEC3",
      "bufferView": 0,
      "byteOffset": 0
    },
    {
      "name": "OP3_1_0_texcoords",
      "componentType": 5126,
      "count": 332,
      "min": [
        0.004000000189989805,
        0.009399999864399433
      ],
      "max": [
        0.9959999918937683,
        0.9959999918937683
      ],
      "type": "VEC2",
      "bufferView": 1,
      "byteOffset": 0
    },
    {
      "name": "OP3_1_0_indices",
      "componentType": 5123,
      "count": 570,
      "min": [
        0
      ],
      "max": [
        331
      ],
      "type": "SCALAR",
      "bufferView": 2,
      "byteOffset": 0
    },
    {
      "name": "OP3_1_1_positions",
      "componentType": 5126,
      "count": 1938,
      "min": [
        -782.5,
        975,
        -12.5
      ],
      "max": [
        3622.5,
        1025,
        1552.5
      ],
      "type": "VEC3",
      "bufferView": 0,
      "byteOffset": 3984
    },
    {
      "name": "OP3_1_1_texcoords",
      "componentType": 5126,
      "count": 1938,
      "min": [
        0.004000000189989805,
        0.004000000189989805
      ],
      "max": [
        0.9957000017166138,
        0.9959999918937683
      ],
      "type": "VEC2",
      "bufferView": 1,
      "byteOffset": 2656
    },
    {
      "name": "OP3_1_1_indices",
      "componentType": 5123,
      "count": 4968,
      "min": [
        0
      ],
      "max": [
        1937
      ],
      "type": "SCALAR",
      "bufferView": 2,
      "byteOffset": 1140
    },
    {
      "name": "OP3_1_2_positions",
      "componentType": 5126,
      "count": 228,
      "min": [
        -852.5,
        0,
        -62.5
      ],
      "max": [
        3672.5,
        1845,
        1622.5
      ],
      "type": "VEC3",
      "bufferView": 0,
      "byteOffset": 27240
    },
    {
      "name": "OP3_1_2_texcoords",
      "componentType": 5126,
      "count": 228,
      "min": [
        0.004000000189989805,
        0.004000000189989805
      ],
      "max": [
        0.9865000247955322,
        0.9959999918937683
      ],
      "type": "VEC2",
      "bufferView": 1,
      "byteOffset": 18160
    },
    {
      "name": "OP3_1_2_indices",
      "componentType": 5123,
      "count": 378,
      "min": [
        0
      ],
      "max": [
        227
      ],
      "type": "SCALAR",
      "bufferView": 2,
      "byteOffset": 11076
    }
  ],
  "asset": {
    "generator": "obj2gltf",
    "version": "2.0"
  },
  "buffers": [
    {
      "name": "OP3",
      "byteLength": 421580,
      "uri": "data:application/octet-stream;base64,"
    }
  ],
  "bufferViews": [
    {
      "name": "bufferView_0",
      "buffer": 0,
      "byteLength": 29976,
      "byteOffset": 0,
      "byteStride": 12,
      "target": 34962
    },
    {
      "name": "bufferView_1",
      "buffer": 0,
      "byteLength": 19984,
      "byteOffset": 29976,
      "byteStride": 8,
      "target": 34962
    },
    {
      "name": "bufferView_2",
      "buffer": 0,
      "byteLength": 11832,
      "byteOffset": 49960,
      "target": 34963
    },
    {
      "buffer": 0,
      "byteOffset": 61792,
      "byteLength": 148582
    },
    {
      "buffer": 0,
      "byteOffset": 210374,
      "byteLength": 76713
    },
    {
      "buffer": 0,
      "byteOffset": 287087,
      "byteLength": 134491
    }
  ],
  "images": [
    {
      "name": "M1VRayLightingMap",
      "mimeType": "image/jpeg",
      "bufferView": 3
    },
    {
      "name": "M3VRayLightingMap",
      "mimeType": "image/jpeg",
      "bufferView": 4
    },
    {
      "name": "M2VRayLightingMap",
      "mimeType": "image/jpeg",
      "bufferView": 5
    }
  ],
  "materials": [
    {
      "name": "M1",
      "pbrMetallicRoughness": {
        "baseColorTexture": {
          "index": 0
        },
        "baseColorFactor": [
          1,
          1,
          1,
          1
        ],
        "metallicFactor": 0,
        "roughnessFactor": 0.99
      },
      "emissiveFactor": [
        0,
        0,
        0
      ],
      "alphaMode": "OPAQUE",
      "doubleSided": false
    },
    {
      "name": "M3",
      "pbrMetallicRoughness": {
        "baseColorTexture": {
          "index": 1
        },
        "baseColorFactor": [
          1,
          1,
          1,
          1
        ],
        "metallicFactor": 0,
        "roughnessFactor": 0.99
      },
      "emissiveFactor": [
        0,
        0,
        0
      ],
      "alphaMode": "OPAQUE",
      "doubleSided": false
    },
    {
      "name": "M2",
      "pbrMetallicRoughness": {
        "baseColorTexture": {
          "index": 2
        },
        "baseColorFactor": [
          1,
          1,
          1,
          1
        ],
        "metallicFactor": 0,
        "roughnessFactor": 0.99
      },
      "emissiveFactor": [
        0,
        0,
        0
      ],
      "alphaMode": "OPAQUE",
      "doubleSided": false
    }
  ],
  "meshes": [
    {
      "name": "OP3_1",
      "primitives": [
        {
          "attributes": {
            "POSITION": 0,
            "TEXCOORD_0": 1
          },
          "indices": 2,
          "material": 0,
          "mode": 4
        },
        {
          "attributes": {
            "POSITION": 3,
            "TEXCOORD_0": 4
          },
          "indices": 5,
          "material": 1,
          "mode": 4
        },
        {
          "attributes": {
            "POSITION": 6,
            "TEXCOORD_0": 7
          },
          "indices": 8,
          "material": 2,
          "mode": 4
        }
      ]
    }
  ],
  "nodes": [
    {
      "name": "OP3",
      "mesh": 0
    }
  ],
  "samplers": [
    {
      "magFilter": 9729,
      "minFilter": 9986,
      "wrapS": 10497,
      "wrapT": 10497
    }
  ],
  "scene": 0,
  "scenes": [
    {
      "nodes": [
        0
      ]
    }
  ],
  "textures": [
    {
      "name": "M1VRayLightingMap",
      "sampler": 0,
      "source": 0
    },
    {
      "name": "M3VRayLightingMap",
      "sampler": 0,
      "source": 1
    },
    {
      "name": "M2VRayLightingMap",
      "sampler": 0,
      "source": 2
    }
  ]
}
