{
  "accessors": [
    {
      "name": "OP1_1_0_positions",
      "componentType": 5126,
      "count": 780,
      "min": [
        -2748.5,
        0,
        -52.5
      ],
      "max": [
        2762.5,
        2335,
        2622.5
      ],
      "type": "VEC3",
      "bufferView": 0,
      "byteOffset": 0
    },
    {
      "name": "OP1_1_0_texcoords",
      "componentType": 5126,
      "count": 780,
      "min": [
        0.004000000189989805,
        0.004999999888241291
      ],
      "max": [
        0.9959999918937683,
        0.9959999918937683
      ],
      "type": "VEC2",
      "bufferView": 1,
      "byteOffset": 0
    },
    {
      "name": "OP1_1_0_indices",
      "componentType": 5123,
      "count": 1278,
      "min": [
        0
      ],
      "max": [
        779
      ],
      "type": "SCALAR",
      "bufferView": 2,
      "byteOffset": 0
    },
    {
      "name": "OP1_1_1_positions",
      "componentType": 5126,
      "count": 96,
      "min": [
        -2593.5,
        100,
        652.5
      ],
      "max": [
        2607.5,
        1770,
        672.5
      ],
      "type": "VEC3",
      "bufferView": 0,
      "byteOffset": 9360
    },
    {
      "name": "OP1_1_1_texcoords",
      "componentType": 5126,
      "count": 96,
      "min": [
        0.004000000189989805,
        0.004000000189989805
      ],
      "max": [
        0.8962000012397766,
        0.9959999918937683
      ],
      "type": "VEC2",
      "bufferView": 1,
      "byteOffset": 6240
    },
    {
      "name": "OP1_1_1_indices",
      "componentType": 5123,
      "count": 144,
      "min": [
        0
      ],
      "max": [
        95
      ],
      "type": "SCALAR",
      "bufferView": 2,
      "byteOffset": 2556
    },
    {
      "name": "OP1_1_2_positions",
      "componentType": 5126,
      "count": 1292,
      "min": [
        -782.5,
        975,
        -12.5
      ],
      "max": [
        785,
        1025,
        92.5
      ],
      "type": "VEC3",
      "bufferView": 0,
      "byteOffset": 10512
    },
    {
      "name": "OP1_1_2_texcoords",
      "componentType": 5126,
      "count": 1292,
      "min": [
        0.004000000189989805,
        0.004000000189989805
      ],
      "max": [
        0.9876000285148621,
        0.9959999918937683
      ],
      "type": "VEC2",
      "bufferView": 1,
      "byteOffset": 7008
    },
    {
      "name": "OP1_1_2_indices",
      "componentType": 5123,
      "count": 3312,
      "min": [
        0
      ],
      "max": [
        1291
      ],
      "type": "SCALAR",
      "bufferView": 2,
      "byteOffset": 2844
    },
    {
      "name": "OP1_1_3_positions",
      "componentType": 5126,
      "count": 152,
      "min": [
        -852.5,
        0,
        -62.5
      ],
      "max": [
        855,
        1845,
        62.5
      ],
      "type": "VEC3",
      "bufferView": 0,
      "byteOffset": 26016
    },
    {
      "name": "OP1_1_3_texcoords",
      "componentType": 5126,
      "count": 152,
      "min": [
        0.004000000189989805,
        0.004000000189989805
      ],
      "max": [
        0.8819000124931335,
        0.9959999918937683
      ],
      "type": "VEC2",
      "bufferView": 1,
      "byteOffset": 17344
    },
    {
      "name": "OP1_1_3_indices",
      "componentType": 5123,
      "count": 252,
      "min": [
        0
      ],
      "max": [
        151
      ],
      "type": "SCALAR",
      "bufferView": 2,
      "byteOffset": 9468
    }
  ],
  "asset": {
    "generator": "obj2gltf",
    "version": "2.0"
  },
  "buffers": [
    {
      "name": "OP1",
      "byteLength": 496496,
      "uri": "data:application/octet-stream;base64,"
    }
  ],
  "bufferViews": [
    {
      "name": "bufferView_0",
      "buffer": 0,
      "byteLength": 27840,
      "byteOffset": 0,
      "byteStride": 12,
      "target": 34962
    },
    {
      "name": "bufferView_1",
      "buffer": 0,
      "byteLength": 18560,
      "byteOffset": 27840,
      "byteStride": 8,
      "target": 34962
    },
    {
      "name": "bufferView_2",
      "buffer": 0,
      "byteLength": 9972,
      "byteOffset": 46400,
      "target": 34963
    },
    {
      "buffer": 0,
      "byteOffset": 56372,
      "byteLength": 194182
    },
    {
      "buffer": 0,
      "byteOffset": 250554,
      "byteLength": 41547
    },
    {
      "buffer": 0,
      "byteOffset": 292101,
      "byteLength": 64192
    },
    {
      "buffer": 0,
      "byteOffset": 356293,
      "byteLength": 140202
    }
  ],
  "images": [
    {
      "name": "M1VRayLightingMap",
      "mimeType": "image/jpeg",
      "bufferView": 3
    },
    {
      "name": "M4VRayLightingMap",
      "mimeType": "image/jpeg",
      "bufferView": 4
    },
    {
      "name": "M3VRayLightingMap",
      "mimeType": "image/jpeg",
      "bufferView": 5
    },
    {
      "name": "M2VRayLightingMap",
      "mimeType": "image/jpeg",
      "bufferView": 6
    }
  ],
  "materials": [
    {
      "name": "M1",
      "pbrMetallicRoughness": {
        "baseColorTexture": {
          "index": 0
        },
        "baseColorFactor": [
          1,
          1,
          1,
          1
        ],
        "metallicFactor": 0,
        "roughnessFactor": 0.99
      },
      "emissiveFactor": [
        0,
        0,
        0
      ],
      "alphaMode": "OPAQUE",
      "doubleSided": false
    },
    {
      "name": "M4",
      "pbrMetallicRoughness": {
        "baseColorTexture": {
          "index": 1
        },
        "baseColorFactor": [
          1,
          1,
          1,
          1
        ],
        "metallicFactor": 0,
        "roughnessFactor": 0.99
      },
      "emissiveFactor": [
        0,
        0,
        0
      ],
      "alphaMode": "OPAQUE",
      "doubleSided": false
    },
    {
      "name": "M3",
      "pbrMetallicRoughness": {
        "baseColorTexture": {
          "index": 2
        },
        "baseColorFactor": [
          1,
          1,
          1,
          1
        ],
        "metallicFactor": 0,
        "roughnessFactor": 0.99
      },
      "emissiveFactor": [
        0,
        0,
        0
      ],
      "alphaMode": "OPAQUE",
      "doubleSided": false
    },
    {
      "name": "M2",
      "pbrMetallicRoughness": {
        "baseColorTexture": {
          "index": 3
        },
        "baseColorFactor": [
          1,
          1,
          1,
          1
        ],
        "metallicFactor": 0,
        "roughnessFactor": 0.99
      },
      "emissiveFactor": [
        0,
        0,
        0
      ],
      "alphaMode": "OPAQUE",
      "doubleSided": false
    }
  ],
  "meshes": [
    {
      "name": "OP1_1",
      "primitives": [
        {
          "attributes": {
            "POSITION": 0,
            "TEXCOORD_0": 1
          },
          "indices": 2,
          "material": 0,
          "mode": 4
        },
        {
          "attributes": {
            "POSITION": 3,
            "TEXCOORD_0": 4
          },
          "indices": 5,
          "material": 1,
          "mode": 4
        },
        {
          "attributes": {
            "POSITION": 6,
            "TEXCOORD_0": 7
          },
          "indices": 8,
          "material": 2,
          "mode": 4
        },
        {
          "attributes": {
            "POSITION": 9,
            "TEXCOORD_0": 10
          },
          "indices": 11,
          "material": 3,
          "mode": 4
        }
      ]
    }
  ],
  "nodes": [
    {
      "name": "OP1",
      "mesh": 0
    }
  ],
  "samplers": [
    {
      "magFilter": 9729,
      "minFilter": 9986,
      "wrapS": 10497,
      "wrapT": 10497
    }
  ],
  "scene": 0,
  "scenes": [
    {
      "nodes": [
        0
      ]
    }
  ],
  "textures": [
    {
      "name": "M1VRayLightingMap",
      "sampler": 0,
      "source": 0
    },
    {
      "name": "M4VRayLightingMap",
      "sampler": 0,
      "source": 1
    },
    {
      "name": "M3VRayLightingMap",
      "sampler": 0,
      "source": 2
    },
    {
      "name": "M2VRayLightingMap",
      "sampler": 0,
      "source": 3
    }
  ]
}
